<?xml version="1.0" encoding="UTF-8"?>
<svg version="1.1" xmlns="http://www.w3.org/2000/svg" width="1536" height="1024">
<path d="M0 0 C506.88 0 1013.76 0 1536 0 C1536 337.92 1536 675.84 1536 1024 C1029.12 1024 522.24 1024 0 1024 C0 686.08 0 348.16 0 0 Z " fill="#F2F4FC" transform="translate(0,0)"/>
<path d="M0 0 C1.21965454 -0.0071553 2.43930908 -0.01431061 3.69592285 -0.02168274 C5.0549619 -0.02452317 6.41400123 -0.02723488 7.77304077 -0.02983093 C9.19876268 -0.03609485 10.62448294 -0.04274159 12.05020142 -0.04974365 C16.7408433 -0.07080146 21.43148556 -0.08115014 26.12216187 -0.09111023 C27.73724764 -0.09515766 29.35233325 -0.09927457 30.96741867 -0.10346031 C38.55785897 -0.12251865 46.14828952 -0.13674626 53.73874915 -0.14507228 C62.49570181 -0.15483652 71.25240115 -0.1811319 80.00926459 -0.22157317 C86.77965209 -0.25176497 93.54996713 -0.2665442 100.32042062 -0.26985329 C104.3628229 -0.27220104 108.40495475 -0.28112468 112.4472847 -0.30631447 C116.25422585 -0.32965291 120.06071969 -0.33380552 123.86771393 -0.32355309 C125.26084509 -0.32305895 126.65399868 -0.32934338 128.04706192 -0.34310913 C142.58191925 -0.47863488 142.58191925 -0.47863488 148.27059937 4.14717102 C152.11405246 7.94031291 153.83013602 11.39471597 153.94824219 16.91255188 C153.93812103 17.60888733 153.92799988 18.30522278 153.91757202 19.0226593 C153.92633362 19.77642853 153.93509521 20.53019775 153.94412231 21.30680847 C153.96598051 23.77763345 153.95161685 26.24664307 153.93466187 28.71748352 C153.93803324 30.44428346 153.94288854 32.17108108 153.94915771 33.89787292 C153.95650997 37.50740776 153.94587463 41.11632188 153.92245483 44.7257843 C153.89392455 49.34748612 153.91040746 53.96773882 153.94031715 58.58938789 C153.95839855 62.15142204 153.95262911 65.71311337 153.93967819 69.27515793 C153.9363487 70.97917224 153.94041522 72.68321792 153.95207596 74.38719559 C153.96480419 76.76912507 153.94538619 79.14871619 153.91757202 81.5304718 C153.92769318 82.23085571 153.93781433 82.93123962 153.94824219 83.65284729 C153.86529544 87.49488116 153.32519816 89.0786818 150.89813232 92.12321472 C148.27059937 94.14717102 148.27059937 94.14717102 145.58309937 94.14717102 C143.27059937 93.14717102 143.27059937 93.14717102 141.27059937 90.14717102 C141.01231384 86.95930481 141.01231384 86.95930481 140.99935913 82.96943665 C140.99413239 82.24229965 140.98890564 81.51516266 140.98352051 80.76599121 C140.97328312 79.18801023 140.96750055 77.60999551 140.96563911 76.03198242 C140.96197948 73.53559043 140.94526525 71.03959713 140.92488098 68.54328918 C140.86942255 61.44631856 140.83874736 54.34928951 140.81430054 47.25215149 C140.79844428 42.91083662 140.76824795 38.5698057 140.72953606 34.2286377 C140.71787082 32.57324228 140.71195557 30.91779613 140.71185493 29.26235962 C140.71166332 26.94957235 140.69343111 24.63757089 140.67123413 22.3249054 C140.66616348 21.0082489 140.66109283 19.69159241 140.65586853 18.33503723 C140.53736214 15.24646931 140.53736214 15.24646931 139.09413338 13.47284985 C136.56668353 11.63543594 134.82005752 11.76267632 131.70878601 11.7484436 C130.55192291 11.73590546 129.39505981 11.72336731 128.20314026 11.71044922 C126.29774223 11.71260185 126.29774223 11.71260185 124.35385132 11.71479797 C123.00366313 11.70578257 121.65348316 11.69545589 120.30331421 11.68391418 C116.63623194 11.65629163 112.96930474 11.64705262 109.30213189 11.64106011 C105.47036588 11.63169004 101.63871633 11.60548782 97.80702209 11.58105469 C90.55041335 11.53734824 83.29382714 11.50882681 76.03712672 11.4857313 C67.7759625 11.45870178 59.51491519 11.41478895 51.25383437 11.36944258 C34.25948284 11.27653698 17.26510608 11.20488341 0.27059937 11.14717102 C0.29678345 12.42358459 0.32296753 13.69999817 0.34994507 15.01509094 C0.44055352 19.75791342 0.49788764 24.50065964 0.54525757 29.24409485 C0.57037743 31.29565808 0.60447973 33.34713203 0.64779663 35.39839172 C0.70855939 38.35003193 0.73683429 41.30048752 0.75888062 44.25263977 C0.78468704 45.16740585 0.81049347 46.08217194 0.83708191 47.0246582 C0.83745956 47.88517288 0.83783722 48.74568756 0.83822632 49.63227844 C0.85488091 50.76145943 0.85488091 50.76145943 0.87187195 51.91345215 C-0.1051391 55.54303394 -1.72214533 56.93439781 -4.72940063 59.14717102 C-7.8954268 59.81464535 -10.96285065 59.73096013 -14.18643188 59.63545227 C-15.08939499 59.62837753 -15.99235809 59.6213028 -16.92268372 59.61401367 C-19.79661151 59.58610421 -22.66856535 59.52337334 -25.54190063 59.45967102 C-27.49434638 59.43458364 -29.44682278 59.41177124 -31.39932251 59.39131165 C-36.17677165 59.33628891 -40.95275189 59.250041 -45.72940063 59.14717102 C-45.66891259 81.63456906 -45.59144568 104.12185128 -45.49368572 126.60911942 C-45.44869273 137.05001569 -45.40928618 147.49087758 -45.38296509 157.93183899 C-45.36001335 167.03066274 -45.32664706 176.12937803 -45.28069907 185.2281158 C-45.25672869 190.04721238 -45.23802495 194.86620127 -45.23178673 199.68535614 C-45.22575309 204.21946014 -45.20581588 208.75328848 -45.17512512 213.28729057 C-45.1663172 214.95297522 -45.16262799 216.61869585 -45.16439247 218.28440285 C-45.16603934 220.55605725 -45.1493974 222.8268654 -45.12812805 225.09840393 C-45.1212146 227.00651541 -45.1212146 227.00651541 -45.11416149 228.95317459 C-44.69298903 232.44943289 -44.44501126 233.89739167 -41.72940063 236.14717102 C-38.45378772 236.75437507 -38.45378772 236.75437507 -34.60002136 236.65510559 C-33.86932448 236.66134555 -33.13862759 236.66758552 -32.38578838 236.67401457 C-29.9304202 236.69000544 -27.47603643 236.67731723 -25.0206604 236.66474915 C-23.26317769 236.67016763 -21.50569951 236.67728875 -19.74822998 236.68598938 C-14.96925305 236.70425961 -10.19062067 236.69713965 -5.41163754 236.68447304 C-0.41533033 236.67436289 4.58094691 236.68373333 9.57725525 236.6900177 C17.96963815 236.69730058 26.36188038 236.68769032 34.75424194 236.6686554 C44.46152796 236.64689252 54.16847788 236.65393121 63.87575573 236.67596102 C72.20365225 236.69410523 80.53144751 236.69667792 88.85935742 236.68620634 C93.83606257 236.67996511 98.81260969 236.67915291 103.78930473 236.69235229 C108.46876018 236.70389569 113.14778188 236.69591278 117.8271904 236.67277527 C119.54610409 236.66747977 121.2650542 236.6690163 122.98395348 236.67782593 C125.32787623 236.68873251 127.67040303 236.67507868 130.01423645 236.65510559 C131.32666038 236.65359749 132.6390843 236.65208939 133.99127865 236.65053558 C137.80272469 236.0654916 138.99197699 235.19967219 141.27059937 232.14717102 C141.85337271 229.80750243 141.85337271 229.80750243 141.75302124 227.25849915 C141.76323303 225.80679321 141.76323303 225.80679321 141.77365112 224.32575989 C141.75667175 222.76782715 141.75667175 222.76782715 141.73934937 221.17842102 C141.74639893 220.1059613 141.75344849 219.03350159 141.76071167 217.92854309 C141.78278027 214.50117693 141.77972889 211.07458773 141.77059937 207.64717102 C141.75858395 203.13633059 141.7721991 198.62665853 141.80184937 194.11592102 C141.78487 192.55798828 141.78487 192.55798828 141.76754761 190.96858215 C141.81796176 183.80171818 141.81796176 183.80171818 144.13583374 180.4499054 C146.27059937 179.14717102 146.27059937 179.14717102 148.89559937 179.33467102 C151.27059937 180.14717102 151.27059937 180.14717102 153.27059937 181.14717102 C153.3721077 189.0124559 153.44211095 196.87757152 153.49032593 204.74336243 C153.50816762 207.41880477 153.53770985 210.09339118 153.57235718 212.76875305 C153.62093442 216.61635673 153.64358302 220.46337889 153.66122437 224.31123352 C153.68186951 225.50519745 153.70251465 226.69916138 153.7237854 227.92930603 C153.72550524 234.30893651 153.65012878 238.3433308 149.27059937 243.14717102 C143.88359094 247.9954786 140.04712109 249.44645725 132.85133362 249.41459656 C131.72655506 249.42139323 131.72655506 249.42139323 130.5790537 249.4283272 C128.06495885 249.44099328 125.55108002 249.43934942 123.03695679 249.43769836 C121.23493674 249.44368228 119.43291925 249.45048751 117.63090515 249.45805359 C112.73412028 249.47573572 107.83740528 249.48040993 102.94059157 249.48168516 C98.85267819 249.48358385 94.7647811 249.49094112 90.67687398 249.49802935 C81.0312682 249.51431967 71.38569975 249.51919775 61.74008179 249.51777649 C51.7914429 249.51657518 41.843021 249.53767342 31.89443702 249.56926382 C23.35248137 249.59542072 14.81059662 249.60614401 6.26860124 249.60486567 C1.16715611 249.60435582 -3.93409625 249.61005151 -9.03550148 249.63122177 C-13.83477374 249.65059399 -18.63366919 249.65073554 -23.43295479 249.63618851 C-25.19254863 249.63409798 -26.95216599 249.63881583 -28.71171951 249.65090942 C-31.11798256 249.66637418 -33.52294832 249.65704669 -35.92918396 249.64164734 C-36.62200008 249.65193447 -37.31481619 249.66222159 -38.02862674 249.67282045 C-43.9451153 249.58941124 -48.04606595 247.54804943 -52.43643188 243.61982727 C-56.86477056 237.97095708 -57.97859416 233.90580682 -57.99682617 226.7527771 C-58.00135728 226.01769895 -58.0058884 225.28262079 -58.01055682 224.52526754 C-58.0231963 222.06722122 -58.02158077 219.60939659 -58.01992798 217.15132141 C-58.02591344 215.38693965 -58.03271902 213.62256051 -58.0402832 211.85818481 C-58.05794672 207.06896056 -58.06263868 202.27980777 -58.06391478 197.49055409 C-58.06581462 193.49196793 -58.07317298 189.49339839 -58.08025897 185.49481863 C-58.09654117 176.06162608 -58.101428 166.62847171 -58.1000061 157.19526672 C-58.09880408 147.46414341 -58.11991852 137.73324167 -58.15149343 128.00217444 C-58.17764038 119.64619976 -58.18837409 111.29029753 -58.18709528 102.93428224 C-58.18658527 97.94410597 -58.19229055 92.95412669 -58.21345139 87.96399117 C-58.23280762 83.2714068 -58.23297619 78.57920795 -58.21841812 73.88661003 C-58.21632581 72.16529655 -58.22105607 70.44395911 -58.23313904 68.72268677 C-58.24857815 66.37085397 -58.23929357 64.02035275 -58.22387695 61.66854858 C-58.22496649 60.35319154 -58.22605602 59.03783449 -58.22717857 57.68261814 C-57.27826569 50.94300382 -52.44782751 46.48917094 -47.91690063 41.70967102 C-47.30886597 41.06441467 -46.7008313 40.41915833 -46.07437134 39.75434875 C-38.32191308 31.60979553 -30.35862174 23.66883476 -22.41690063 15.70967102 C-21.71020233 15.00029388 -21.00350403 14.29091675 -20.27539062 13.56004333 C-18.2460827 11.52491243 -16.21306097 9.4935749 -14.17861938 7.46357727 C-13.24825867 6.53025574 -13.24825867 6.53025574 -12.29910278 5.57807922 C-7.87599579 1.17893474 -6.17029828 0.02477279 0 0 Z " fill="#163D6B" transform="translate(267.7294006347656,352.8528289794922)"/>
<path d="M0 0 C0.83982422 0.00563965 1.67964844 0.0112793 2.54492188 0.01708984 C16.92547614 0.29490851 29.469178 4.42944356 40.15625 14.328125 C43.39608543 17.93741534 45.76000183 21.99604345 47.9375 26.3125 C48.74767578 27.85164063 48.74767578 27.85164063 49.57421875 29.421875 C51.61662181 34.3114844 51.4696825 39.33580867 51.4375 44.5625 C51.43395508 45.58722412 51.43041016 46.61194824 51.42675781 47.66772461 C51.2618629 55.16267617 50.19475635 61.00001645 45.9375 67.3125 C45.2775 68.405625 44.6175 69.49875 43.9375 70.625 C43.2775 71.511875 42.6175 72.39875 41.9375 73.3125 C41.256875 74.281875 40.57625 75.25125 39.875 76.25 C33.01980077 84.21289911 21.8049328 89.6656527 11.41943359 90.51953125 C8.54803689 90.66060707 5.68721192 90.72528626 2.8125 90.75 C1.89428467 90.76023193 0.97606934 90.77046387 0.0300293 90.78100586 C-12.98745724 90.61424956 -24.81320969 85.56179031 -34.0625 76.3125 C-44.01003266 63.04183555 -46.85171199 50.56056021 -44.5 34.125 C-41.95066206 23.35314955 -34.93159877 14.04925097 -25.71875 8.18359375 C-17.1800424 3.09670411 -10.05382965 -0.07043315 0 0 Z " fill="#183D69" transform="translate(1272.0625,432.6875)"/>
<path d="M0 0 C2.9375 1.5625 2.9375 1.5625 5 4 C5.66542165 7.99252991 5.40552689 10.20657782 3.5625 13.8125 C0.75912182 17.5470356 -2.49940681 20.92972633 -5.6484375 24.37109375 C-8.51870532 27.57988153 -11.17528697 30.92499123 -13.83984375 34.3046875 C-16.31817547 37.39700013 -18.86918735 40.41990951 -21.4375 43.4375 C-26.36498876 49.23335768 -31.20070942 55.09733554 -36 61 C-36.99704705 62.21513002 -37.99446606 63.4299549 -38.9921875 64.64453125 C-45.7237464 72.85811802 -52.26396607 81.19316689 -58.68359375 89.65234375 C-61.49927939 93.35780947 -64.36109386 97.02495377 -67.23413086 100.68603516 C-72.59666701 107.52321314 -77.81702958 114.43404337 -82.875 121.5 C-97.07508599 141.33291435 -97.07508599 141.33291435 -103.5625 142.8125 C-106.80847417 142.72926989 -107.91996636 142.06819586 -110.4296875 139.9296875 C-113.07150106 137.04097548 -115.55701852 134.05566573 -118 131 C-119.11375 129.6696875 -119.11375 129.6696875 -120.25 128.3125 C-124.90289659 122.72902409 -129.36418634 116.99501388 -133.83911133 111.26904297 C-138.43509531 105.40677759 -143.21302322 99.7072518 -148 94 C-151.02977249 90.35654154 -154.02560303 86.68872065 -157 83 C-157.55171875 82.35289062 -158.1034375 81.70578125 -158.671875 81.0390625 C-161.10808957 78.01432419 -162.33968294 75.58663128 -162.5625 71.75 C-162 68 -162 68 -160.5 66 C-154.6072621 63.64290484 -148.77587718 64.94945624 -143 67 C-142.01773437 67.31839844 -141.03546875 67.63679688 -140.0234375 67.96484375 C-126.65201367 72.61509302 -118.05005249 81.67158644 -108.38769531 91.58007812 C-106.60705191 93.40207355 -104.8057766 95.20294696 -103 97 C-102.72615479 96.41677979 -102.45230957 95.83355957 -102.17016602 95.23266602 C-101.02794132 93.05331178 -99.77363129 91.22663809 -98.27734375 89.27734375 C-97.74351074 88.57955811 -97.20967773 87.88177246 -96.65966797 87.1628418 C-96.09135254 86.428479 -95.52303711 85.69411621 -94.9375 84.9375 C-94.3511377 84.17671143 -93.76477539 83.41592285 -93.16064453 82.63208008 C-85.96945285 73.33319328 -78.54449853 64.37694144 -70.546875 55.765625 C-68.52140015 53.56618299 -66.55905519 51.34123829 -64.625 49.0625 C-57.10884512 40.40533848 -48.74790127 32.39609415 -40 25 C-38.9636164 24.08993748 -37.9285849 23.17833405 -36.89453125 22.265625 C-10.08625172 -1.26078146 -10.08625172 -1.26078146 0 0 Z " fill="#45C03F" transform="translate(464,432)"/>
<path d="M0 0 C11.199375 -0.12375 11.199375 -0.12375 22.625 -0.25 C24.95127441 -0.28641602 27.27754883 -0.32283203 29.67431641 -0.36035156 C43.8403792 -0.49000131 58.18248599 -0.52869689 69 10 C74.87908694 15.8326731 77.15674738 21.22373927 77.375 29.375 C77.11772096 38.35918411 75.24440876 44.5186885 69.05078125 51.13671875 C65.66245027 54.21525947 61.91985257 56.65342159 58 59 C58.67804688 59.85980469 59.35609375 60.71960938 60.0546875 61.60546875 C62.52383044 64.73932944 64.98658172 67.87815472 67.44677734 71.01904297 C68.46380271 72.31614197 69.48230237 73.61208669 70.50244141 74.90673828 C71.90214847 76.6842112 73.29553295 78.46646281 74.6875 80.25 C75.1211084 80.79809326 75.5547168 81.34618652 76.00146484 81.91088867 C79 85.77182356 79 85.77182356 79 88 C73.67527577 88.41499649 68.36878675 88.65110719 63.02734375 88.53515625 C62.15070068 88.518479 61.27405762 88.50180176 60.37084961 88.48461914 C57.40023376 87.87740336 56.33810481 86.81851983 54.4375 84.5 C54.09332031 83.69433594 53.74914063 82.88867188 53.39453125 82.05859375 C51.42519474 77.73929266 48.54098009 74.28534717 45.625 70.5625 C44.54887651 69.17244803 43.47815615 67.77818855 42.4140625 66.37890625 C41.71724365 65.47507202 41.71724365 65.47507202 41.00634766 64.55297852 C40 63 40 63 40 61 C32.74 61 25.48 61 18 61 C18 69.91 18 78.82 18 88 C12.06 88 6.12 88 0 88 C0 58.96 0 29.92 0 0 Z " fill="#183D69" transform="translate(1070,434)"/>
<path d="M0 0 C7.3425 -0.061875 14.685 -0.12375 22.25 -0.1875 C25.68841309 -0.22846802 25.68841309 -0.22846802 29.19628906 -0.27026367 C43.79207155 -0.37172377 58.50372911 -0.21879289 69.8125 10.3125 C76.23517177 17.26186012 77.15124901 24.74139984 77 34 C76.01376937 42.06820592 73.02984615 47.58466046 67 53 C65.04924438 54.51624857 63.13722304 55.73709547 61 57 C60.01 57.66 59.02 58.32 58 59 C58.52207031 59.62003906 59.04414062 60.24007812 59.58203125 60.87890625 C64.77484081 67.12664735 69.65760892 73.51770717 74.3684082 80.13500977 C76.69959446 83.59422861 76.69959446 83.59422861 80 86 C80 86.66 80 87.32 80 88 C62.50340639 90.04038388 62.50340639 90.04038388 57.16894531 86.93359375 C53.0945724 83.14272591 50.494819 78.0802574 48.08984375 73.12451172 C45.9385511 68.72064804 43.8915376 65.12983137 40 62 C32.73501866 60.12268974 25.46261667 60.77656836 18 61 C18 69.91 18 78.82 18 88 C12.06 88 6.12 88 0 88 C0 58.96 0 29.92 0 0 Z " fill="#183D6A" transform="translate(517,434)"/>
<path d="M0 0 C4.95 0 9.9 0 15 0 C15 29.04 15 58.08 15 88 C9.39 88 3.78 88 -2 88 C-2.33 69.85 -2.66 51.7 -3 33 C-6.63 38.94 -10.26 44.88 -14 51 C-16.35769483 54.68122975 -18.7198675 58.35083345 -21.125 62 C-22.23266984 63.68691003 -23.33948721 65.37438023 -24.4453125 67.0625 C-24.91469238 67.77535156 -25.38407227 68.48820312 -25.86767578 69.22265625 C-27.04316782 71.00015919 -27.04316782 71.00015919 -28 73 C-31.24988162 73.83494982 -33.76459817 73.96234698 -37 73 C-40.55774553 69.40920309 -43.00467313 65.14035956 -45.5625 60.8125 C-46.2698322 59.66809064 -46.98010007 58.5254903 -47.69335938 57.38476562 C-49.03896861 55.22063947 -50.36225006 53.04776981 -51.67407227 50.86254883 C-55.07413143 45.21624506 -58.54567914 39.61327141 -62 34 C-62.33 51.82 -62.66 69.64 -63 88 C-68.61 88 -74.22 88 -80 88 C-80 59.29 -80 30.58 -80 1 C-64 1 -64 1 -60.5234375 3.9453125 C-59.39331055 5.92749023 -59.39331055 5.92749023 -58.375 8.125 C-57.51682843 9.68237285 -56.65601103 11.2382898 -55.79296875 12.79296875 C-55.35259277 13.63134277 -54.9122168 14.4697168 -54.45849609 15.33349609 C-51.79815786 20.19727483 -48.70686569 24.79152932 -45.6875 29.4375 C-41.34137559 36.22398119 -37.11171337 43.06887927 -33 50 C-30.66942476 47.83650021 -29.07012471 45.67145385 -27.46875 42.9296875 C-26.99332764 42.1238623 -26.51790527 41.31803711 -26.02807617 40.48779297 C-25.52381104 39.62557129 -25.0195459 38.76334961 -24.5 37.875 C-19.66084563 29.7063831 -14.70713243 21.64212323 -9.43359375 13.74609375 C-7.89319284 11.43109124 -6.58089389 9.19902044 -5.28515625 6.72265625 C-3.75 3.9375 -3.75 3.9375 0 0 Z " fill="#163C68" transform="translate(952,434)"/>
<path d="M0 0 C22.77 0 45.54 0 69 0 C69 5.28 69 10.56 69 16 C52.5 16 36 16 19 16 C19 22.6 19 29.2 19 36 C33.52 36 48.04 36 63 36 C63 40.95 63 45.9 63 51 C48.48 51 33.96 51 19 51 C19 57.93 19 64.86 19 72 C35.83 72 52.66 72 70 72 C70 77.28 70 82.56 70 88 C46.9 88 23.8 88 0 88 C0 58.96 0 29.92 0 0 Z " fill="#1D416B" transform="translate(986,434)"/>
<path d="M0 0 C22.77 0 45.54 0 69 0 C69 5.28 69 10.56 69 16 C52.17 16 35.34 16 18 16 C18 22.6 18 29.2 18 36 C32.85 36 47.7 36 63 36 C63 40.95 63 45.9 63 51 C48.15 51 33.3 51 18 51 C18 57.93 18 64.86 18 72 C35.16 72 52.32 72 70 72 C70 77.28 70 82.56 70 88 C46.9 88 23.8 88 0 88 C0 58.96 0 29.92 0 0 Z " fill="#1A3F6A" transform="translate(609,434)"/>
<path d="M0 0 C5.94 0 11.88 0 18 0 C18.01981934 1.62421875 18.03963867 3.2484375 18.06005859 4.921875 C18.13632866 10.96776409 18.22501326 17.01341924 18.31738281 23.05908203 C18.35558418 25.67199066 18.39045224 28.28495028 18.421875 30.89794922 C18.46771733 34.6613178 18.52568103 38.42433793 18.5859375 42.1875 C18.59748871 43.34926758 18.60903992 44.51103516 18.62094116 45.70800781 C18.78797611 54.95969499 19.21919505 62.21919505 26 69 C30.45452403 72.44362651 34.39144928 72.54397854 39.8125 72.5 C41.020271 72.49141968 41.020271 72.49141968 42.25244141 72.48266602 C47.3999667 72.32714058 51.44873109 71.88293657 55.58984375 68.5625 C60.49093918 63.13192335 62.09214411 57.584002 62.20532227 50.40527344 C62.22526749 49.28441345 62.24521271 48.16355347 62.26576233 47.00872803 C62.28247482 45.80444153 62.29918732 44.60015503 62.31640625 43.359375 C62.33718735 42.12205627 62.35796844 40.88473755 62.37937927 39.60992432 C62.43365872 36.32861309 62.48391779 33.04727267 62.53222656 29.76586914 C62.58256092 26.41416896 62.6382636 23.0625628 62.69335938 19.7109375 C62.80044513 13.14069321 62.90174126 6.57038199 63 0 C68.94 0 74.88 0 81 0 C81.04955881 7.82876673 81.08579513 15.65744145 81.10986328 23.48632812 C81.11876745 26.14786548 81.13353257 28.80918615 81.15087891 31.47070312 C81.17522721 35.30341302 81.18650621 39.13597668 81.1953125 42.96875 C81.20563507 44.15239136 81.21595764 45.33603271 81.22659302 46.55554199 C81.22818811 58.38769065 78.73655617 68.97965808 71.0625 78.37109375 C62.16867643 87.01968321 52.31699268 89.41537192 40.3125 89.5 C39.0126416 89.50966797 39.0126416 89.50966797 37.68652344 89.51953125 C26.55100226 89.29977903 17.56456179 85.83354154 9.24609375 78.44140625 C4.73607811 73.72793125 2.8419638 68.16821723 1 62 C0.82163101 61.40656799 0.64326202 60.81313599 0.45948792 60.20172119 C-0.10506899 57.49654254 -0.11953496 54.98608094 -0.11352539 52.22167969 C-0.11344986 51.0607782 -0.11337433 49.89987671 -0.11329651 48.70379639 C-0.10813522 47.45576233 -0.10297394 46.20772827 -0.09765625 44.921875 C-0.0962413 43.64016418 -0.09482635 42.35845337 -0.09336853 41.03790283 C-0.08955901 37.6381636 -0.07974214 34.2384674 -0.06866455 30.83874512 C-0.05841674 27.366461 -0.0538637 23.8941699 -0.04882812 20.421875 C-0.03811841 13.61456392 -0.02053433 6.80728846 0 0 Z " fill="#193E6A" transform="translate(773,434)"/>
<path d="M0 0 C1.03858154 0.00402832 2.07716309 0.00805664 3.1472168 0.01220703 C13.50115668 0.27960175 22.65335457 2.85223638 31.3125 8.625 C30.62363213 12.01391322 29.32533514 14.80511613 27.75 17.875 C27.29496094 18.76703125 26.83992187 19.6590625 26.37109375 20.578125 C25.84708984 21.59132813 25.84708984 21.59132813 25.3125 22.625 C24.43207031 22.27566406 23.55164063 21.92632812 22.64453125 21.56640625 C21.48308594 21.11136719 20.32164062 20.65632813 19.125 20.1875 C17.97644531 19.73503906 16.82789063 19.28257812 15.64453125 18.81640625 C9.98871538 16.79410397 4.82700919 16.39006745 -1.125 16.3125 C-2.23198242 16.26899414 -2.23198242 16.26899414 -3.36132812 16.22460938 C-8.61993986 16.16384319 -11.47406567 17.21908632 -15.6875 20.625 C-17.04604025 21.77640868 -17.04604025 21.77640868 -17.0625 24.875 C-16.58535008 29.64649924 -15.33577688 30.61909445 -11.6875 33.625 C-8.42651635 34.93685246 -8.42651635 34.93685246 -4.8125 35.6875 C-3.48042743 36.01154893 -2.14839742 36.33577289 -0.81640625 36.66015625 C0.20428955 36.89822998 0.20428955 36.89822998 1.24560547 37.14111328 C25.43723067 42.80468535 25.43723067 42.80468535 33.3125 53.625 C36.26174564 58.62589478 35.95454333 64.3985974 34.84765625 69.9609375 C32.84569817 76.90263828 29.65202556 81.64453169 23.39453125 85.35546875 C13.02606949 90.6723048 4.72839865 90.84853176 -6.6875 90.625 C-7.79738281 90.60824219 -8.90726563 90.59148437 -10.05078125 90.57421875 C-20.89316272 90.07159179 -29.80515042 85.60350452 -38.6875 79.625 C-37.04571735 74.84890502 -34.42203298 70.83117096 -31.6875 66.625 C-27.16119548 68.38796281 -22.79511859 70.42659064 -18.40625 72.50390625 C-12.90683909 74.7716231 -7.61827367 74.83667658 -1.75 74.875 C-0.96431641 74.895625 -0.17863281 74.91625 0.63085938 74.9375 C6.51585076 74.97689743 10.74432852 73.94463876 15.25 69.875 C16.8959459 66.3894675 16.41706833 64.26357802 15.3125 60.625 C9.0407366 54.83567994 0.05513215 53.74160208 -8.0625 52.3125 C-17.66761743 50.43809387 -26.45245372 47.27387793 -32.6015625 39.3359375 C-36.60557915 33.02745084 -36.47264789 26.98886075 -35.6875 19.625 C-34.56969417 16.36516626 -33.01139867 14.14728026 -30.6875 11.625 C-30.11773438 10.99980469 -29.54796875 10.37460937 -28.9609375 9.73046875 C-20.89678019 1.84883352 -10.95512139 -0.11602165 0 0 Z " fill="#193D69" transform="translate(725.6875,432.375)"/>
<path d="M0 0 C0.70511719 0.01087646 1.41023438 0.02175293 2.13671875 0.03295898 C10.83085867 0.29961953 15.89062849 2.52064177 22.234375 8.40234375 C29.06144772 15.76916367 30.54051232 22.62509926 30.33203125 32.5078125 C29.72905076 41.15927168 26.48574418 46.90804308 20.15234375 52.74609375 C15.95851401 56.01492927 12.47020392 57.375 7.0625 57.375 C7.0625 58.035 7.0625 58.695 7.0625 59.375 C-3.2706805 60.02420506 -12.00607435 58.82980908 -20.3125 52.25 C-25.39622634 47.42724524 -29.53779094 40.06389471 -30.140625 32.9921875 C-30.29425369 24.00490888 -28.76995308 16.46852401 -22.9375 9.375 C-16.13375 3.31401747 -9.28217016 -0.19448992 0 0 Z " fill="#F0F2FB" transform="translate(1274.9375,448.625)"/>
<path d="M0 0 C5.94 0 11.88 0 18 0 C18 29.04 18 58.08 18 88 C12.06 88 6.12 88 0 88 C0 58.96 0 29.92 0 0 Z " fill="#173D69" transform="translate(1195,434)"/>
<path d="M0 0 C1.28704834 -0.01268921 1.28704834 -0.01268921 2.60009766 -0.02563477 C4.00751221 -0.01652573 4.00751221 -0.01652573 5.44335938 -0.00723267 C6.43384277 -0.01248962 7.42432617 -0.01774658 8.44482422 -0.02316284 C11.72574536 -0.03638929 15.00618312 -0.02761522 18.28710938 -0.01748657 C20.56250095 -0.01950654 22.8378919 -0.02241733 25.11328125 -0.02618408 C29.88482825 -0.03061103 34.65620692 -0.02416433 39.42773438 -0.01016235 C45.5515279 0.00692957 51.67492701 -0.0029096 57.79870605 -0.02087975 C62.49807724 -0.03170748 67.19735454 -0.02827586 71.89672852 -0.02049637 C74.15502977 -0.01849157 76.41333948 -0.02096339 78.67163086 -0.02793503 C81.82493756 -0.03553275 84.97760075 -0.02396848 88.13085938 -0.00723267 C89.06913574 -0.01330536 90.00741211 -0.01937805 90.97412109 -0.02563477 C91.83215332 -0.01717529 92.69018555 -0.00871582 93.57421875 0 C94.31973999 0.00113108 95.06526123 0.00226215 95.83337402 0.00342751 C98.36128463 0.49189973 99.25159708 1.34261049 100.78710938 3.38095093 C101.09960938 6.44345093 101.09960938 6.44345093 100.78710938 9.38095093 C98.39175235 11.77630795 97.88173085 11.6328468 94.61854553 11.64164734 C93.30831673 11.65227455 93.30831673 11.65227455 91.97161865 11.66311646 C91.01104553 11.66063904 90.05047241 11.65816162 89.06079102 11.65560913 C88.0509465 11.66072006 87.04110199 11.66583099 86.00065613 11.6710968 C82.64946633 11.68504143 79.29848106 11.68403236 75.94726562 11.68173218 C73.62560448 11.68561644 71.30394405 11.68995054 68.98228455 11.69471741 C64.1106435 11.70219012 59.23907491 11.70188074 54.36743164 11.69662476 C48.11471531 11.6908289 41.86229508 11.70775908 35.60962772 11.73096943 C30.81333167 11.74567874 26.01710738 11.74658229 21.22079277 11.7434597 C18.91503755 11.74397433 16.60927845 11.74923842 14.303545 11.75927162 C11.08310661 11.77156427 7.86325085 11.76488731 4.64282227 11.75326538 C3.68427338 11.76090912 2.72572449 11.76855286 1.73812866 11.77642822 C0.86182297 11.76941391 -0.01448273 11.7623996 -0.91734314 11.75517273 C-1.67891189 11.75534047 -2.44048063 11.75550821 -3.22512722 11.75568104 C-5.76429678 11.27700068 -6.67785259 10.42922389 -8.21289062 8.38095093 C-8.07275297 5.57819791 -7.66943546 3.95807095 -5.92150879 1.74851036 C-3.78914089 0.04178624 -2.70799244 0.00410846 0 0 Z " fill="#1E4470" transform="translate(267.212890625,461.6190490722656)"/>
<path d="M0 0 C4.62 -0.0825 9.24 -0.165 14 -0.25 C16.16175781 -0.30462402 16.16175781 -0.30462402 18.3671875 -0.36035156 C25.71515563 -0.42376665 30.85338111 -0.1847733 37 4 C39.79496018 7.21772305 40.91517474 10.30928003 41.4375 14.5625 C40.79332582 19.62386858 39.33643563 22.73390308 35.625 26.25 C30.83533739 29.4431084 27.13342005 30.24779379 21.38671875 30.1953125 C20.26225342 30.19031738 19.13778809 30.18532227 17.97924805 30.18017578 C16.56297119 30.16196777 15.14669434 30.14375977 13.6875 30.125 C9.170625 30.08375 4.65375 30.0425 0 30 C0 20.1 0 10.2 0 0 Z " fill="#EFF2FB" transform="translate(1088,450)"/>
<path d="M0 0 C6.4040625 -0.0928125 6.4040625 -0.0928125 12.9375 -0.1875 C14.26515381 -0.21481201 15.59280762 -0.24212402 16.96069336 -0.27026367 C24.99362758 -0.3263116 32.32996634 -0.31834574 38.52734375 5.28515625 C41.24831053 10.30126211 40.77911246 15.46969281 40 21 C38.64800828 24.45147886 36.58117775 26.22169672 33.20898438 27.8815918 C26.29885393 30.4235796 19.72757038 30.34360725 12.4375 30.1875 C8.333125 30.125625 4.22875 30.06375 0 30 C0 20.1 0 10.2 0 0 Z " fill="#F0F2FB" transform="translate(535,450)"/>
<path d="M0 0 C0.87493103 -0.00563965 1.74986206 -0.0112793 2.65130615 -0.01708984 C4.0945224 -0.01101715 4.0945224 -0.01101715 5.56689453 -0.00482178 C7.08407074 -0.01007874 7.08407074 -0.01007874 8.63189697 -0.01544189 C11.9879027 -0.02427165 15.34369902 -0.01840562 18.69970703 -0.01165771 C21.02376343 -0.01300401 23.34781956 -0.01494423 25.671875 -0.01745605 C30.54771602 -0.02040901 35.42348387 -0.01610415 40.29931641 -0.0067749 C46.56104354 0.00461967 52.82259923 -0.00193888 59.08432007 -0.01391983 C63.88486023 -0.02113379 68.68535951 -0.01885263 73.48590088 -0.01366425 C75.79526795 -0.01232646 78.10463868 -0.01397993 80.41400146 -0.01862335 C83.63694142 -0.02368094 86.85960058 -0.01598907 90.08251953 -0.00482178 C91.0446637 -0.00887024 92.00680786 -0.0129187 92.99810791 -0.01708984 C94.31050446 -0.00863037 94.31050446 -0.00863037 95.64941406 0 C96.4119046 0.00075405 97.17439514 0.0015081 97.95999146 0.002285 C99.82470703 0.25396729 99.82470703 0.25396729 101.82470703 2.25396729 C102.07470703 5.25396729 102.07470703 5.25396729 101.82470703 8.25396729 C99.42691323 10.65176109 98.91630882 10.50470383 95.64941406 10.50793457 C94.33701752 10.51639404 94.33701752 10.51639404 92.99810791 10.52502441 C92.03596375 10.52097595 91.07381958 10.51692749 90.08251953 10.51275635 C88.56534332 10.51801331 88.56534332 10.51801331 87.01751709 10.52337646 C83.66151136 10.53220622 80.30571504 10.52634019 76.94970703 10.51959229 C74.62565063 10.52093858 72.3015945 10.5228788 69.97753906 10.52539062 C65.10169804 10.52834358 60.22593019 10.52403872 55.35009766 10.51470947 C49.08837053 10.5033149 42.82681483 10.50987345 36.56509399 10.5218544 C31.76455383 10.52906836 26.96405456 10.5267872 22.16351318 10.52159882 C19.85414612 10.52026103 17.54477538 10.5219145 15.2354126 10.52655792 C12.01247264 10.53161551 8.78981348 10.52392364 5.56689453 10.51275635 C4.12367828 10.51882904 4.12367828 10.51882904 2.65130615 10.52502441 C1.77637512 10.51938477 0.90144409 10.51374512 0 10.50793457 C-0.76249054 10.50718052 -1.52498108 10.50642647 -2.31057739 10.50564957 C-4.17529297 10.25396729 -4.17529297 10.25396729 -6.17529297 8.25396729 C-6.42529297 5.25396729 -6.42529297 5.25396729 -6.17529297 2.25396729 C-3.77749916 -0.14382652 -3.26689476 0.00323074 0 0 Z " fill="#153C69" transform="translate(266.17529296875,430.74603271484375)"/>
<path d="M0 0 C0.69097275 0.00404846 1.3819455 0.00809692 2.09385681 0.01226807 C2.82245407 0.00876343 3.55105133 0.00525879 4.30172729 0.00164795 C6.71625729 -0.00717295 9.13049558 -0.00131907 11.54502869 0.00543213 C13.21889808 0.00408558 14.89276708 0.00214513 16.56663513 -0.00036621 C20.07721169 -0.00331796 23.58768658 0.00098175 27.09825134 0.01031494 C31.60451093 0.02170954 36.1105323 0.01515033 40.61678314 0.00317001 C44.07395736 -0.00404725 47.53107483 -0.00176128 50.98825073 0.0034256 C52.65008573 0.00476247 54.31192584 0.00311308 55.97375488 -0.00153351 C58.29387616 -0.0065966 60.61360836 0.00110815 62.93370056 0.01226807 C63.62467331 0.0082196 64.31564606 0.00417114 65.02755737 0 C69.78524943 0.04252787 69.78524943 0.04252787 72.01377869 2.27105713 C72.26377869 5.27105713 72.26377869 5.27105713 72.01377869 8.27105713 C69.59210891 10.69272691 68.33235977 10.51257342 65.02755737 10.54211426 C64.33658463 10.5380658 63.64561188 10.53401733 62.93370056 10.52984619 C61.84080467 10.53510315 61.84080467 10.53510315 60.72583008 10.54046631 C58.31130009 10.5492872 55.89706179 10.54343333 53.48252869 10.53668213 C51.8086593 10.53802868 50.13479029 10.53996913 48.46092224 10.54248047 C44.95034568 10.54543221 41.43987079 10.54113251 37.92930603 10.53179932 C33.42304644 10.52040472 28.91702507 10.52696392 24.41077423 10.53894424 C20.95360002 10.54616151 17.49648254 10.54387554 14.03930664 10.53868866 C12.37747164 10.53735179 10.71563153 10.53900118 9.05380249 10.54364777 C6.73368121 10.54871086 4.41394901 10.54100611 2.09385681 10.52984619 C1.40288406 10.53389465 0.71191132 10.53794312 0 10.54211426 C-4.75769206 10.49958638 -4.75769206 10.49958638 -6.98622131 8.27105713 C-7.23622131 5.27105713 -7.23622131 5.27105713 -6.98622131 2.27105713 C-4.56455154 -0.15061265 -3.3048024 0.02954084 0 0 Z " fill="#173D69" transform="translate(295.98622131347656,398.72894287109375)"/>
<path d="M0 0 C2.87029869 1.79393668 4.49131638 2.98263276 6 6 C6.59118191 10.98281892 6.56656053 13.91956309 3.5 18 C1.11868382 20.44871192 -0.57223706 21.51269334 -4 21.75 C-8.58244304 21.3454081 -10.85257191 19.22419463 -14 16 C-15.60086627 12.79826746 -15.49917089 9.47422941 -15 6 C-11.03690229 -0.20885308 -7.02452124 -0.90991208 0 0 Z " fill="#1B3F6A" transform="translate(1174,502)"/>
<path d="M0 0 C0 8.25 0 16.5 0 25 C-7.92 25 -15.84 25 -24 25 C-22.04686331 21.09372661 -20.30304159 19.0580173 -17.24609375 16.015625 C-16.78517838 15.55516785 -16.324263 15.09471069 -15.84938049 14.62030029 C-14.87924882 13.65317817 -13.90669939 12.68847596 -12.93188477 11.72607422 C-11.43377195 10.24631763 -9.9439157 8.75861398 -8.45507812 7.26953125 C-1.14017532 0 -1.14017532 0 0 0 Z " fill="#E7EBF5" transform="translate(256,375)"/>
<path d="M0 0 C0.33 0.66 0.66 1.32 1 2 C-2.7625584 6.44006088 -6.63937323 10.7553293 -10.6875 14.9375 C-11.77611328 16.06478516 -11.77611328 16.06478516 -12.88671875 17.21484375 C-15.01241738 19.01048936 -16.28184674 19.61344547 -19 20 C-13.17371096 12.84198775 -6.5617015 6.47408234 0 0 Z " fill="#52C44B" transform="translate(416,464)"/>
<path d="M0 0 C-1.15173355 2.46800047 -2.04783565 4.04783565 -4 6 C-4.99 5.67 -5.98 5.34 -7 5 C-2.25 0 -2.25 0 0 0 Z " fill="#D6DEEB" transform="translate(1257,455)"/>
<path d="M0 0 C-0.8125 1.9375 -0.8125 1.9375 -2 4 C-2.99 4.33 -3.98 4.66 -5 5 C-5.33 5.99 -5.66 6.98 -6 8 C-5.62403791 5.21788056 -5.32681541 3.4120716 -3.5625 1.1875 C-2 0 -2 0 0 0 Z " fill="#D8DFED" transform="translate(714,450)"/>
</svg>
